<?xml version="1.0" encoding="iso-8859-1"?>
<!-- Generator: Adobe Illustrator 19.0.0, SVG Export Plug-In . SVG Version: 6.00 Build 0)  -->
<svg xmlns="http://www.w3.org/2000/svg" xmlns:xlink="http://www.w3.org/1999/xlink" version="1.1" id="Capa_1" x="0px" y="0px" viewBox="0 0 512 512" style="enable-background:new 0 0 512 512;" xml:space="preserve">
<path style="fill:#4AA657;" d="M455.111,71.111H56.889C25.472,71.111,0,96.583,0,128v256c0,31.417,25.472,56.889,56.889,56.889  h398.222C486.528,440.889,512,415.417,512,384V128C512,96.583,486.528,71.111,455.111,71.111z"/>
<g>
	<path style="fill:#C8313E;" d="M455.111,71.111H56.889C25.472,71.111,0,96.583,0,128v56.889v142.222h512V184.889V128   C512,96.583,486.528,71.111,455.111,71.111z"/>
	<path style="fill:#C8313E;" d="M63.78,382.22l-21.358,30.886L60.7,440.889h9.198l15.161-27.066L63.78,382.22z M55.507,415.106   l8.889-15.772l9.116,16.228l-9.116,14.663L55.507,415.106z"/>
	<polygon style="fill:#C8313E;" points="85.333,260.729 85.333,248.015 80.882,254.216  "/>
	<path style="fill:#C8313E;" d="M40.173,99.915L27.365,79.364c-11.027,6.709-19.587,17.065-24.019,29.39l18.433,24.579   L40.173,99.915z M10.888,102.217l8.889-15.772l9.116,16.228l-9.116,14.663L10.888,102.217z"/>
	<path style="fill:#C8313E;" d="M41.334,187.108l-21.333-34.219L0,183.805v9.233l12.223,20.296l8.661-12.672L14.669,192l4.665-6.215   l13.554,17.55l-19.996,32.882L0,218.463v22.111l0.827-1.101l13.554,17.55L0,280.679v16.746l12.891-17.754l19.996,32.882   l-13.554,17.55l-4.665-6.215l6.215-8.661l-8.661-12.672L0,322.851v8.184l20.445,31.187l20.665-36.452l23.783,38.457l20.441-36.223   v85.343v-0.013v-90.911l-1.778,0.796l-12.444-20.665l-8.676,12.672l6.229,8.661L64,330.118l-13.568-17.564l20.011-32.882   l14.891,20.508v-16.24l-16.455-27.051l13.554-17.55l2.901,3.854v-28.402l-15.559,21.433l-19.996-32.896l13.554-17.55l4.665,6.215   l-6.229,8.676l8.676,12.658l12.444-20.665l2.446,1.095v-8.875l-19.992-31.112L41.334,187.108z M60.95,242.219l-0.057,13.715   l0.057,13.715l-19.84,31.317l-18.689-31.46L22.224,256h-0.002h0.001h-0.001h0.002l0.197-13.559L41.11,210.92L60.95,242.219z"/>
	<polygon style="fill:#C8313E;" points="0,251.037 0,257.825 2.377,254.349  "/>
	<path style="fill:#C8313E;" d="M65.668,135.552l19.392-34.619L64.98,71.111h-2.432l-20.126,29.105L65.668,135.552z M73.512,102.672   l-9.116,14.663l-8.889-15.118l8.889-15.772L73.512,102.672z"/>
	<path style="fill:#C8313E;" d="M20.004,380.442l-15.95,24.643c2.691,6.735,6.629,12.833,11.534,18.013l-4.699-7.992l8.889-15.772   l9.116,16.228l-7.841,12.612c2.424,1.969,5.017,3.737,7.749,5.291l11.371-20.658L20.004,380.442z"/>
	<polygon style="fill:#C8313E;" points="85.333,71.111 85.333,100.457 85.333,100.445  "/>
</g>
<g>
	<path style="fill:#FFFFFF;" d="M85.333,328.005l-20.441,36.224l-23.781-38.457l-20.666,36.452L0,331.036V384   c0,7.452,1.448,14.563,4.054,21.085l15.95-24.644l20.169,32.364l-11.371,20.658c8.288,4.718,17.869,7.426,28.087,7.426H60.7   l-18.278-27.783L63.78,382.22l21.28,31.603l-15.161,27.066h15.434v-27.563l0.002,0.008l-0.002,0.013V328.005z M9.257,387.557   l-8.889-15.118l8.889-15.772l9.116,16.228L9.257,387.557z M30.813,387.557l-8.889-15.118l8.889-15.772l9.116,16.228L30.813,387.557   z M51.924,387.557l-8.889-15.118l8.889-15.772l9.116,16.228L51.924,387.557z M74.563,387.557l-8.889-15.118l8.889-15.772   l9.116,16.228L74.563,387.557z"/>
	<path style="fill:#FFFFFF;" d="M19.777,399.333l-8.889,15.772l4.699,7.992c1.711,1.806,3.532,3.505,5.465,5.075l7.841-12.612   L19.777,399.333z"/>
	<polygon style="fill:#FFFFFF;" points="64.396,399.333 55.507,415.106 64.396,430.224 73.512,415.561  "/>
</g>
<g>
	<polygon style="fill:#C8313E;" points="0.368,372.439 9.257,387.557 18.373,372.894 9.257,356.667  "/>
	<polygon style="fill:#C8313E;" points="21.924,372.439 30.813,387.557 39.928,372.894 30.813,356.667  "/>
	<polygon style="fill:#C8313E;" points="43.035,372.439 51.924,387.557 61.04,372.894 51.924,356.667  "/>
	<polygon style="fill:#C8313E;" points="65.674,372.439 74.563,387.557 83.679,372.894 74.563,356.667  "/>
</g>
<g>
	<path style="fill:#FFFFFF;" d="M85.333,71.111H64.98l20.08,29.822l-19.392,34.619l-23.247-35.336l20.127-29.105h-5.659   c-10.811,0-20.917,3.017-29.524,8.253l12.808,20.551l-18.394,33.418L3.346,108.754C1.185,114.766,0,121.244,0,128v55.805   l20.001-30.916l21.333,34.219l24.007-33.337l19.99,31.112l0.003,0.007v-84.452l0.002,0.008l-0.002,0.013V71.111z M9.257,159.112   l-8.889-15.118l8.889-15.772l9.116,16.228L9.257,159.112z M30.813,159.112l-8.889-15.118l8.889-15.772l9.116,16.228L30.813,159.112   z M51.924,159.112l-8.889-15.118l8.889-15.772l9.116,16.228L51.924,159.112z M74.563,159.112l-8.889-15.118l8.889-15.772   l9.116,16.228L74.563,159.112z"/>
	<polygon style="fill:#FFFFFF;" points="19.777,86.444 10.888,102.217 19.777,117.335 28.894,102.672  "/>
	<polygon style="fill:#FFFFFF;" points="64.396,117.335 73.512,102.672 64.396,86.444 55.507,102.217  "/>
</g>
<g>
	<polygon style="fill:#C8313E;" points="0.368,143.994 9.257,159.112 18.373,144.449 9.257,128.222  "/>
	<polygon style="fill:#C8313E;" points="21.924,143.994 30.813,159.112 39.928,144.449 30.813,128.222  "/>
	<polygon style="fill:#C8313E;" points="43.035,143.994 51.924,159.112 61.04,144.449 51.924,128.222  "/>
	<polygon style="fill:#C8313E;" points="65.674,143.994 74.563,159.112 83.679,144.449 74.563,128.222  "/>
</g>
<g>
	<polygon style="fill:#FFFFFF;" points="32.888,203.335 19.334,185.785 14.669,192 20.884,200.661 12.223,213.333 0,193.037    0,218.463 12.891,236.217  "/>
	<polygon style="fill:#FFFFFF;" points="20.884,315.227 14.669,323.889 19.334,330.104 32.888,312.553 12.891,279.672 0,297.425    0,322.851 12.223,302.555  "/>
	<polygon style="fill:#FFFFFF;" points="0.827,239.472 0,240.573 0,251.037 2.377,254.349 0,257.825 0,280.679 14.38,257.022  "/>
	<path style="fill:#FFFFFF;" d="M22.421,242.441L22.224,256h-0.002h0.001h-0.001h0.002l0.197,13.507l18.688,31.46l19.84-31.317   l-0.057-13.715l0.057-13.715l-19.84-31.298L22.421,242.441z M54.556,239.566l-8.342,15.214l8.34,15.211l-7.336,4.023l-5.775-10.533   l-5.775,10.533l-7.336-4.023l8.34-15.211l-8.342-15.214l7.336-4.022l5.777,10.534l5.777-10.534L54.556,239.566z"/>
</g>
<polygon style="fill:#C8313E;" points="35.668,235.544 28.332,239.566 36.673,254.779 28.333,269.99 35.669,274.013 41.444,263.48   47.219,274.013 54.555,269.99 46.215,254.779 54.556,239.566 47.22,235.544 41.444,246.079 "/>
<g>
	<polygon style="fill:#FFFFFF;" points="70.443,213.327 61.767,200.669 67.996,191.993 63.332,185.778 49.778,203.328    69.774,236.224 85.333,214.791 85.333,193.757 82.887,192.662  "/>
	<polygon style="fill:#FFFFFF;" points="68.878,256.889 85.333,283.939 85.333,260.729 80.882,254.216 85.333,248.015    85.333,243.193 82.432,239.339  "/>
	<polygon style="fill:#FFFFFF;" points="50.432,312.553 64,330.118 68.665,323.889 62.436,315.227 71.111,302.555 83.556,323.22    85.333,322.424 85.333,300.18 70.443,279.672  "/>
</g>
<g>
</g>
<g>
</g>
<g>
</g>
<g>
</g>
<g>
</g>
<g>
</g>
<g>
</g>
<g>
</g>
<g>
</g>
<g>
</g>
<g>
</g>
<g>
</g>
<g>
</g>
<g>
</g>
<g>
</g>
</svg>
