<?xml version="1.0" encoding="iso-8859-1"?>
<!-- Generator: Adobe Illustrator 19.0.0, SVG Export Plug-In . SVG Version: 6.00 Build 0)  -->
<svg xmlns="http://www.w3.org/2000/svg" xmlns:xlink="http://www.w3.org/1999/xlink" version="1.1" id="Capa_1" x="0px" y="0px" viewBox="0 0 512 512" style="enable-background:new 0 0 512 512;" xml:space="preserve">
<g transform="matrix(1.25 0 0 -1.25 0 45)">
	<g>
		<path style="fill:#00247D;" d="M0-111.911h64.034L0-67.083V-111.911z"/>
		<path style="fill:#00247D;" d="M53.066-316.711h94.845v66.412L53.066-316.711z"/>
		<path style="fill:#00247D;" d="M261.689-250.31v-66.401h94.834L261.689-250.31z"/>
		<path style="fill:#00247D;" d="M0-225.689v-44.84l64.057,44.84H0z"/>
		<path style="fill:#00247D;" d="M356.58-20.889h-94.857v-66.412L356.58-20.889z"/>
		<path style="fill:#00247D;" d="M345.532-225.689L409.6-270.54v44.851H345.532z"/>
		<path style="fill:#00247D;" d="M345.555-111.911H409.6v44.84L345.555-111.911z"/>
		<path style="fill:#00247D;" d="M147.911-20.889H53.066l94.845-66.412V-20.889z"/>
	</g>
	<g>
		<g>
			<g>
				<path style="fill:#CF1B2B;" d="M286.037-225.689l110.501-77.38c5.359,5.461,9.193,12.311,11.264,19.9l-82.091,57.481H286.037z"/>
				<path style="fill:#CF1B2B;" d="M147.911-225.689h-24.36l-110.49-77.369c5.928-6.03,13.528-10.342,22.05-12.345l112.799,78.985      V-225.689z"/>
				<path style="fill:#CF1B2B;" d="M261.689-111.911h24.36l110.49,77.369c-5.928,6.03-13.528,10.342-22.039,12.345l-112.811-78.985      V-111.911z"/>
				<path style="fill:#CF1B2B;" d="M123.551-111.911L13.062-34.542c-5.359-5.461-9.193-12.311-11.275-19.9l82.091-57.469H123.551z"/>
			</g>
			<g>
				<path style="fill:#EEEEEE;" d="M409.6-202.933H238.933v-113.778h22.756v66.401l94.834-66.401h7.566      c12.709,0,24.189,5.245,32.449,13.642l-110.501,77.38h39.674l82.091-57.481c1.058,3.834,1.798,7.805,1.798,11.969v0.66      l-64.068,44.851H409.6V-202.933z"/>
				<path style="fill:#EEEEEE;" d="M0-202.933v-22.756h64.057L0-270.529v-0.671c0-12.413,4.995-23.643,13.062-31.858l110.49,77.369      h24.36v-10.729L35.112-315.403c3.345-0.785,6.804-1.308,10.399-1.308h7.555l94.845,66.412v-66.412h22.756v113.778H0z"/>
				<path style="fill:#EEEEEE;" d="M409.6-66.4c0,12.413-4.995,23.643-13.062,31.858l-110.49-77.369h-24.36v10.729L374.5-22.197      c-3.356,0.785-6.815,1.308-10.411,1.308h-7.543l-94.857-66.412v66.412h-22.756v-113.778H409.6v22.756h-64.046l64.046,44.84      V-66.4z"/>
				<path style="fill:#EEEEEE;" d="M147.911-20.889v-66.412L53.066-20.889h-7.555c-12.72,0-24.189-5.245-32.449-13.653      l110.49-77.369H83.877L1.786-54.442C0.74-58.276,0-62.236,0-66.4v-0.671l64.034-44.84H0v-22.756h170.667v113.778H147.911z"/>
			</g>
			<path style="fill:#CF1B2B;" d="M238.933-134.667v113.778h-68.267v-113.778H0V-168.8v-34.133h170.667v-113.778h68.267v113.778     H409.6v34.133v34.133H238.933z"/>
		</g>
	</g>
</g>
<g>
</g>
<g>
</g>
<g>
</g>
<g>
</g>
<g>
</g>
<g>
</g>
<g>
</g>
<g>
</g>
<g>
</g>
<g>
</g>
<g>
</g>
<g>
</g>
<g>
</g>
<g>
</g>
<g>
</g>
</svg>
