<svg width="1268" height="757" viewBox="0 0 1268 757" fill="none" xmlns="http://www.w3.org/2000/svg">
<path d="M380.569 0.0749512C170.369 0.0749512 0.0687561 169.475 0.0687561 378.375C0.0687561 587.275 170.369 756.675 380.569 756.675C477.669 756.675 566.269 720.475 633.569 660.975C638.869 656.275 644.069 651.375 649.169 646.375C650.869 644.675 652.569 642.975 654.169 641.275H612.969C614.669 642.975 616.269 644.675 617.969 646.375C616.269 644.675 614.569 642.975 612.969 641.275C605.669 633.775 598.769 626.075 592.169 618.075C590.669 616.275 589.269 614.475 587.769 612.675C589.169 614.475 590.669 616.275 592.169 618.075H674.969C680.869 610.975 686.469 603.675 691.769 596.075H575.269C577.969 599.875 580.669 603.575 583.469 607.275C580.669 603.575 577.969 599.875 575.269 596.075C568.769 586.875 562.669 577.375 556.969 567.575C549.569 554.875 542.969 541.775 537.069 528.175C535.469 524.475 533.869 520.675 532.369 516.975C530.869 513.175 529.469 509.375 528.069 505.575C525.369 497.975 522.769 490.175 520.569 482.375H746.569C748.669 474.975 750.569 467.375 752.269 459.775H514.769C516.069 465.475 517.469 471.175 518.969 476.775C517.469 471.175 516.069 465.475 514.769 459.775C512.269 448.575 510.269 437.175 508.869 425.575C508.769 424.375 508.569 423.175 508.469 421.975C508.569 423.175 508.769 424.375 508.869 425.575C509.369 429.275 509.869 432.875 510.369 436.575H756.569C757.669 429.275 758.669 421.975 759.369 414.575H507.669C506.969 406.875 506.469 399.175 506.169 391.375C506.069 389.275 506.069 387.075 505.969 384.975C505.969 382.875 505.869 380.675 505.869 378.575C505.869 380.775 505.869 382.875 505.969 384.975C505.969 387.075 506.069 389.275 506.169 391.375H760.869C760.969 389.475 760.969 387.575 761.069 385.575C761.069 385.375 761.069 385.075 761.069 384.875C761.069 384.775 761.069 384.675 761.069 384.675C761.069 382.575 761.169 380.575 761.169 378.475C761.169 374.975 761.069 371.475 760.969 367.975C760.569 355.075 759.569 342.275 757.969 329.775H509.169C508.169 337.775 507.369 345.775 506.769 353.875C506.669 355.875 506.569 357.975 506.469 359.975C506.369 361.675 506.269 363.375 506.269 365.075C506.369 363.375 506.369 361.675 506.469 359.975C506.569 357.975 506.669 355.875 506.769 353.875C508.269 329.875 512.169 306.475 517.969 283.875C519.969 275.975 522.269 268.275 524.769 260.675C525.369 258.875 525.969 257.075 526.569 255.275C527.169 253.475 527.869 251.675 528.469 249.975C527.869 251.775 527.169 253.475 526.569 255.275C525.969 257.075 525.369 258.875 524.769 260.675H742.269C739.869 253.475 737.369 246.375 734.569 239.275H532.569C531.869 241.075 531.169 242.775 530.569 244.575C531.269 242.775 531.869 241.075 532.569 239.275C535.669 231.375 539.069 223.675 542.769 216.075C543.769 213.975 544.769 211.875 545.869 209.875C546.869 207.775 547.969 205.775 549.069 203.675C547.969 205.675 546.969 207.775 545.869 209.875C544.869 211.975 543.769 213.975 542.769 216.075H724.369C722.969 213.275 721.569 210.475 720.169 207.675C719.469 206.375 718.869 205.075 718.169 203.775C717.969 203.475 717.769 203.075 717.669 202.775C717.469 202.375 717.269 201.975 717.069 201.575C716.069 199.675 715.069 197.775 713.969 195.875C713.169 194.475 712.369 192.975 711.569 191.575H555.569C560.069 183.675 564.969 175.875 570.069 168.375C571.269 166.575 572.469 164.875 573.669 163.075C574.869 161.375 576.169 159.575 577.369 157.875C579.869 154.375 582.369 150.975 584.969 147.675C591.169 139.675 597.669 131.975 604.469 124.475H662.469C660.169 121.975 657.869 119.475 655.469 117.075C648.469 109.775 641.069 102.775 633.469 95.975C566.269 36.275 477.669 0.0749512 380.569 0.0749512ZM585.069 147.575C582.469 150.975 579.969 154.375 577.469 157.775C576.269 159.475 574.969 161.275 573.769 162.975C572.569 164.775 571.369 166.475 570.169 168.275H697.069C692.269 161.175 687.269 154.275 682.069 147.575H585.069ZM517.969 283.875C516.069 291.275 514.369 298.875 512.869 306.475H754.169C752.669 298.875 750.969 291.275 749.069 283.875H517.969ZM528.069 505.675C529.469 509.475 530.869 513.275 532.369 517.075C533.869 520.875 535.469 524.575 537.069 528.275H730.169C733.369 520.875 736.369 513.275 739.169 505.675H528.069V505.675ZM556.969 567.675C557.969 569.475 559.069 571.175 560.069 572.975H706.969C711.169 565.975 715.169 558.875 718.969 551.575H548.069C550.969 556.975 553.869 562.375 556.969 567.675ZM667.969 130.575C668.869 131.675 669.769 132.675 670.669 133.775C669.869 132.675 668.969 131.575 667.969 130.575ZM700.469 173.475C701.169 174.575 701.969 175.775 702.669 176.875C701.969 175.775 701.269 174.675 700.469 173.475ZM705.769 181.875C706.469 182.975 707.069 184.075 707.769 185.175C707.069 184.075 706.469 182.975 705.769 181.875ZM726.669 220.975C727.369 222.475 728.069 223.975 728.669 225.475C728.069 223.975 727.369 222.475 726.669 220.975ZM715.569 557.975C715.169 558.775 714.669 559.575 714.169 560.375C714.669 559.575 715.169 558.775 715.569 557.975ZM702.469 580.275C701.769 581.275 701.169 582.375 700.469 583.375C701.169 582.375 701.769 581.275 702.469 580.275ZM670.769 623.175C669.869 624.275 668.969 625.275 668.069 626.375C668.969 625.275 669.869 624.275 670.769 623.175ZM664.769 629.975C663.669 631.175 662.569 632.375 661.469 633.575C662.569 632.475 663.669 631.175 664.769 629.975ZM657.269 638.075C656.469 638.975 655.569 639.775 654.769 640.675C655.569 639.875 656.469 638.975 657.269 638.075Z" fill="#FF0018"/>
<path d="M886.569 0.0749512C789.469 0.0749512 700.869 36.275 633.569 95.775C643.669 104.775 653.369 114.275 662.469 124.275H604.569C597.769 131.775 591.269 139.475 585.069 147.475H681.969C687.169 154.175 692.169 161.175 696.969 168.175H570.069C564.969 175.775 560.169 183.475 555.569 191.375H711.469C716.069 199.375 720.369 207.575 724.369 215.875H542.769C539.169 223.475 535.669 231.275 532.569 239.075H734.569C737.369 246.075 739.869 253.175 742.269 260.475H524.769C519.869 275.375 515.869 290.675 512.869 306.275C514.369 298.675 516.069 291.175 517.969 283.675H749.069C750.969 291.075 752.669 298.675 754.169 306.275H512.869C510.969 315.875 509.469 325.675 508.369 335.475C508.569 333.475 508.869 331.475 509.069 329.475H757.869C759.969 345.375 761.069 361.675 761.069 378.175C761.069 382.475 760.969 386.775 760.869 391.075H506.169C506.469 398.875 506.969 406.575 507.669 414.275H759.469C758.769 421.675 757.769 428.975 756.669 436.275H510.469C511.669 444.075 513.169 451.875 514.869 459.475H752.369C750.669 467.075 748.769 474.675 746.669 482.075H520.669C522.969 489.975 525.469 497.675 528.169 505.275H739.169C736.369 512.975 733.469 520.475 730.169 527.875H536.969C543.669 543.275 551.369 558.175 560.069 572.475C555.869 565.475 551.869 558.375 548.069 551.075H718.969C715.169 558.375 711.169 565.475 706.969 572.475H560.069C564.869 580.375 569.969 588.175 575.269 595.675H691.769C686.469 603.175 680.769 610.575 674.969 617.675H592.169C598.769 625.675 605.769 633.475 612.969 640.875H654.169C647.569 647.675 640.669 654.275 633.569 660.575C700.769 720.075 789.469 756.275 886.569 756.275C1096.77 756.275 1267.07 586.875 1267.07 377.975C1267.07 169.075 1096.67 0.0749512 886.569 0.0749512ZM575.269 596.175C576.569 598.075 577.969 599.875 579.369 601.775C577.969 599.875 576.669 597.975 575.269 596.175ZM536.969 528.275C533.769 520.875 530.769 513.275 527.969 505.675C530.769 513.275 533.769 520.875 536.969 528.275ZM506.169 391.375C506.069 389.275 506.069 387.075 505.969 384.975C506.069 387.075 506.169 389.175 506.169 391.375ZM506.069 384.875C506.069 382.775 505.969 380.575 505.969 378.475C505.969 380.575 505.969 382.775 506.069 384.875ZM508.369 335.675C507.869 339.675 507.569 343.675 507.169 347.775C507.569 343.775 507.969 339.775 508.369 335.675ZM507.269 347.775C507.169 349.375 507.069 350.875 506.969 352.475C506.969 350.875 507.069 349.375 507.269 347.775ZM524.769 260.675C525.369 258.875 525.969 257.075 526.569 255.275C525.969 257.075 525.369 258.875 524.769 260.675ZM532.569 239.275C531.969 240.675 531.469 242.175 530.869 243.575C531.469 242.175 531.969 240.675 532.569 239.275ZM570.069 168.275C571.269 166.475 572.469 164.775 573.669 162.975C572.469 164.775 571.269 166.475 570.069 168.275ZM573.669 162.975C574.869 161.175 576.169 159.475 577.369 157.775C576.169 159.475 574.969 161.275 573.669 162.975ZM548.969 203.675C547.969 205.575 547.069 207.375 546.069 209.275C547.069 207.375 547.969 205.475 548.969 203.675ZM530.269 245.275C529.669 246.775 529.169 248.375 528.569 249.875C529.069 248.375 529.669 246.875 530.269 245.275ZM506.469 359.975C506.369 361.875 506.269 363.875 506.169 365.775C506.269 363.875 506.369 361.875 506.469 359.975ZM508.869 425.575C508.969 426.775 509.169 427.875 509.369 429.075C509.169 427.975 509.069 426.775 508.869 425.575ZM514.869 459.975C515.269 461.775 515.669 463.675 516.169 465.475C515.669 463.675 515.269 461.875 514.869 459.975ZM517.469 471.175C517.969 472.975 518.369 474.775 518.869 476.575C518.469 474.775 517.969 472.975 517.469 471.175ZM613.369 641.775C614.869 643.275 616.369 644.875 617.969 646.375C616.369 644.875 614.869 643.375 613.369 641.775Z" fill="#FFAA18"/>
<path d="M506.2 371H527.2L532.3 339H512.5L516.5 319.1H476.7C475.8 319.8 453.2 430.8 453.2 444.4C453.2 464.4 466.4 473.3 484.9 473.2C499.4 473.1 510.7 469.7 514.7 468.7L519.7 439.8C517 439.8 513 440.8 509.4 440.8C495.6 440.8 494 434.5 494.9 429.9L506.2 371Z" fill="white"/>
<path d="M648.5 415.9C648.5 415.9 653.7 393.9 653.7 384.9C653.7 362.5 640.7 335.2 597 335.2C557 335.2 527.4 372 527.4 413.6C527.4 461.6 564.5 473 596.1 473C625.3 473 638.1 467.4 638.1 467.4L645.1 434.6C645.1 434.6 622.9 443 602.9 443C560.2 443 567.7 415.8 567.7 415.8H648.5V415.9ZM597.1 365.7C619.6 365.7 615.4 387.3 615.4 389H571.2C571.2 386.7 575.4 365.7 597.1 365.7Z" fill="white"/>
<path d="M783.7 401.9C783.7 361.8 808 339.7 835 339.7C855.3 339.7 871.5 349.4 871.5 349.4L878 313.4C878 313.4 853.9 305.1 833.2 305.1C787.3 305.1 742.6 339.1 742.6 403C742.6 445.4 766.7 473.4 814.2 473.4C827.6 473.4 849 468.7 849 468.7L856.1 431.7C856.1 431.7 836.6 440.1 823.2 440.1C795 440 783.7 421.6 783.7 401.9Z" fill="white"/>
<path d="M295.9 335.8C268.6 335.8 247.7 343.3 247.7 343.3L242 372.5C242 372.5 259.3 366.5 285.3 366.5C300.1 366.5 311 367.9 311 378.2C311 384.4 309.7 386.8 309.7 386.8C309.7 386.8 298 386 292.6 386C258.1 386 222 398.5 222 436.3C222 466.1 245.7 472.9 260.4 472.9C288.5 472.9 300.6 457.3 301.2 457.3L299.9 470.3H334.9L350.5 376.7C350.6 337 310 335.8 295.9 335.8ZM276.3 444.5C263.9 444.5 260.7 436.4 260.7 431.7C260.7 422.4 266.6 411.2 295.8 411.2C302.6 411.2 303.3 411.8 304.4 412C305.2 417.7 300.3 444.5 276.3 444.5Z" fill="white"/>
<path d="M422.4 367.1C428 367.1 449.6 368.6 449.6 368.6L454.6 338.6C454.6 338.6 440.6 335.9 417.9 335.9C388.5 335.9 358.6 345.9 358.6 380.3C358.6 419.2 408.4 415.3 408.4 431.7C408.4 442.6 394.5 443.5 383.8 443.5C365.2 443.5 348.5 438.1 348.5 438.3L343.2 468C344.2 468.3 354.5 472.2 387.8 472.2C396.8 472.2 448 474.1 448 429C448 386.8 400.6 395.1 400.6 378.2C400.6 369.8 408.3 367.1 422.4 367.1Z" fill="white"/>
<path d="M1178.5 308.8L1169.9 354.3C1169.9 354.3 1154.9 336.6 1131.5 336.6C1095 336.6 1064.7 374.1 1064.7 417.3C1064.7 445.1 1080.9 472.4 1114 472.4C1137.8 472.4 1151 458.2 1151 458.2L1149.2 470.3H1188L1218.4 308.7L1178.5 308.8ZM1128.1 439.4C1113.8 439.4 1107.1 429.1 1107.1 413C1107.1 386.7 1121 369.3 1138.4 369.3C1152.7 369.3 1160.1 377.7 1160.1 397.5C1160.1 415.5 1149.7 439.4 1128.1 439.4Z" fill="white"/>
<path d="M173.3 308.7L134.1 408L132 308.7H74L42.2 470.5H80.5L104.8 348.5L108.3 470.5H135.7L186.8 348.5L164.2 470.5H204.9L236.3 308.7H173.3Z" fill="white"/>
<path d="M741.9 337.3C724.1 337.3 710.9 358.1 710.9 358.1L714.4 339H677.4L652.6 470.7H693.5C705.1 414.4 707.2 368.8 734.9 377.1C739.7 355.3 744.4 346.9 749.7 337.7C749.6 337.8 747.1 337.3 741.9 337.3Z" fill="white"/>
<path d="M940.8 335.8C913.5 335.8 892.6 343.3 892.6 343.3L886.8 372.6C886.8 372.6 904.1 366.6 930.1 366.6C944.9 366.6 955.7 368 955.7 378.3C955.7 384.5 954.4 386.9 954.4 386.9C954.4 386.9 942.7 386.1 937.3 386.1C902.9 386.1 866.8 398.6 866.8 436.5C866.8 466.3 890.5 473.1 905.2 473.1C933.3 473.1 945.4 457.5 946 457.5L944.7 470.5H979.7L995.3 376.9C995.4 337 954.9 335.8 940.8 335.8ZM921.2 444.5C908.8 444.5 905.6 436.4 905.6 431.7C905.6 422.4 911.5 411.2 940.7 411.2C947.5 411.2 948.2 411.8 949.4 412C950.1 417.7 945.1 444.5 921.2 444.5Z" fill="white"/>
<path d="M1083.6 337.8C1083.6 337.8 1081.1 337.4 1075.9 337.4C1058.1 337.4 1044.9 358.2 1044.9 358.2L1048.4 339.1H1011.4L986.6 470.8H1027.4C1039 414.5 1041.1 368.9 1068.8 377.2C1073.7 355.4 1078.3 347 1083.6 337.8Z" fill="white"/>
</svg>
