<svg width="1253" height="334" viewBox="0 0 1253 334" fill="none" xmlns="http://www.w3.org/2000/svg">
<path d="M690.6 90.5H643.7C639.2 90.5 635 92.7 632.5 96.4L567.8 191.6L540.4 100.1C538.7 94.4 533.4 90.4 527.4 90.4H481.3C475.7 90.4 471.8 95.9 473.6 101.1L525.2 252.6L476.7 321.1C472.9 326.5 476.7 333.9 483.3 333.9H530.1C534.5 333.9 538.7 331.7 541.2 328.1L697.1 103.1C701 97.8 697.1 90.5 690.6 90.5ZM377.2 181.3C372.7 207.9 351.5 225.8 324.6 225.8C311.1 225.8 300.2 221.4 293.3 213.2C286.4 205 283.8 193.4 286 180.5C290.2 154.1 311.7 135.6 338.3 135.6C351.5 135.6 362.3 140 369.4 148.3C376.4 156.7 379.2 168.4 377.2 181.3ZM442.2 90.5H395.6C391.6 90.5 388.2 93.4 387.6 97.4L385.6 110.4L382.3 105.7C372.2 91 349.7 86.1 327.2 86.1C275.7 86.1 231.7 125.2 223.1 179.9C218.6 207.2 225 233.3 240.5 251.6C254.7 268.3 275 275.3 299.2 275.3C340.7 275.3 363.8 248.6 363.8 248.6L361.7 261.6C360.9 266.5 364.7 271 369.7 271H411.7C418.4 271 424 266.2 425.1 259.6L450.3 100C451 94.9 447.2 90.5 442.2 90.5ZM162.3 91.6C157 126.6 130.3 126.6 104.4 126.6H89.7L100 61.3C100.6 57.4 104 54.5 108 54.5H114.7C132.3 54.5 148.9 54.5 157.4 64.5C162.7 70.4 164.3 79.3 162.3 91.6ZM151.1 0.400024H53.7C47 0.400024 41.4 5.20003 40.3 11.8L0.999994 261.5C0.199994 266.4 3.99999 270.9 8.99999 270.9H55.5C62.2 270.9 67.8 266.1 68.9 259.5L79.5 192.1C80.5 185.5 86.2 180.7 92.9 180.7H123.7C187.9 180.7 224.9 149.7 234.6 88.1C239 61.2 234.8 40.1 222.2 25.3C208.2 9.00003 183.7 0.400024 151.1 0.400024Z" fill="#283D7E"/>
<path d="M1191.8 7.30003L1151.8 261.6C1151 266.5 1154.8 271 1159.8 271H1200C1206.7 271 1212.3 266.2 1213.4 259.6L1252.8 9.90002C1253.6 5.00002 1249.8 0.500023 1244.8 0.500023H1199.8C1195.8 0.400023 1192.4 3.30003 1191.8 7.30003ZM1071.8 181.3C1067.3 207.9 1046.1 225.8 1019.2 225.8C1005.7 225.8 994.8 221.4 987.9 213.2C981 205 978.4 193.4 980.6 180.5C984.8 154.1 1006.3 135.6 1032.9 135.6C1046.1 135.6 1056.9 140 1064 148.3C1071.1 156.7 1073.9 168.4 1071.8 181.3ZM1136.8 90.5H1090.2C1086.2 90.5 1082.8 93.4 1082.2 97.4L1080.2 110.4L1076.9 105.7C1066.8 91 1044.3 86.1 1021.8 86.1C970.3 86.1 926.3 125.2 917.7 179.9C913.2 207.2 919.6 233.3 935.1 251.6C949.3 268.3 969.6 275.3 993.8 275.3C1035.3 275.3 1058.4 248.6 1058.4 248.6L1056.3 261.6C1055.5 266.5 1059.3 271 1064.3 271H1106.3C1113 271 1118.6 266.2 1119.7 259.6L1144.9 100C1145.6 94.9 1141.8 90.5 1136.8 90.5ZM857 91.6C851.7 126.6 825 126.6 799.1 126.6H784.4L794.7 61.3C795.3 57.4 798.7 54.5 802.7 54.5H809.4C827 54.5 843.6 54.5 852.1 64.5C857.4 70.4 858.9 79.3 857 91.6ZM845.7 0.400024H748.3C741.6 0.400024 736 5.20003 734.9 11.8L695.5 261.5C694.7 266.4 698.5 270.9 703.5 270.9H753.5C758.2 270.9 762.1 267.5 762.9 262.9L774.1 192.1C775.1 185.5 780.8 180.7 787.5 180.7H818.3C882.5 180.7 919.5 149.7 929.2 88.1C933.6 61.2 929.4 40.1 916.8 25.3C902.9 9.00003 878.3 0.400024 845.7 0.400024Z" fill="#1D9BD4"/>
</svg>
