<svg width="1237" height="644" viewBox="0 0 1237 644" fill="none" xmlns="http://www.w3.org/2000/svg">
<path d="M111.5 72.6H43.7C37.1 72.6 32.8 74.8 26.2 77C19.6 79.2 15.3 83.6 10.9 85.8C4.29999 94.6 0 107.7 0 123V339.6H48V267.4H113.6C126.7 267.4 135.5 263 144.2 254.3C153 245.5 157.3 236.8 157.3 223.7V122.9C157.4 90.1 142.1 72.6 111.5 72.6ZM109.3 206C109.3 208.2 107.1 212.6 104.9 214.8C102.7 217 100.5 219.2 96.1 219.2H61.1C50.2 219.2 45.8 214.8 45.8 203.9V136C45.8 127.2 50.2 122.9 58.9 120.7H96.1C102.7 120.7 107 125.1 107 131.6V206H109.3ZM306.2 72.6H196.8V120.7H293.1C301.9 120.7 306.2 122.9 306.2 131.6V136H242.7C212.1 136 196.8 151.3 196.8 181.9V221.3C196.8 249.7 214.3 265.1 244.9 265.1H310.5C323.6 265.1 334.6 260.7 341.1 252C349.9 243.2 352 232.3 354.2 219.2V118.5C354.3 87.9 339 72.6 306.2 72.6ZM308.4 208.2C308.4 214.8 304 217 295.3 217H258.1C253.7 217 251.5 217 249.3 214.8C247.1 212.6 244.9 210.4 244.9 208.2V195.1C244.9 190.7 244.9 186.3 247.1 184.2C249.3 182 251.5 182 258 182H295.2C304 182 308.3 186.4 308.3 192.9L308.4 208.2ZM503.1 206C503.1 208.2 500.9 212.6 498.7 214.8C496.5 217 492.1 219.2 487.8 219.2H455C446.2 219.2 441.9 214.8 441.9 203.9V72.6H393.8V217C393.8 225.8 396 232.3 398.2 236.7C400.4 243.3 404.8 247.6 409.1 252C413.4 256.4 420 260.8 424.4 262.9C428.8 265 435.3 265.1 444.1 265.1H505.4V276C505.4 278.2 503.2 282.6 501 284.8C498.8 287 494.4 289.2 492.2 289.2H395.9V339.5H507.5C520.6 339.5 531.6 335.1 540.3 324.2C549.1 315.4 551.2 302.3 553.4 287V72.6H505.3V206H503.1ZM590.6 116.3V153.5C590.6 164.4 595 173.2 603.7 181.9C612.5 190.7 623.4 195 636.5 195H678.1C680.3 195 682.5 197.2 684.7 201.6C684.7 203.8 686.9 203.8 686.9 206V208.2C686.9 214.8 682.5 217 673.8 217H588.5V265.1H689.2C698 265.1 704.5 265.1 708.9 262.9C713.3 260.7 717.7 258.5 722 252C730.8 241.1 735.1 232.3 735.1 221.4V186.4C735.1 175.5 730.7 164.5 722 155.8C713.2 147 704.5 142.7 693.6 142.7H652C641.1 142.7 636.7 140.5 636.7 133.9V131.7C636.7 125.1 641.1 122.9 652 122.9H737.3V72.6H638.8C606 72.6 590.6 87.9 590.6 116.3ZM879.5 72.6H770.1V120.7H866.4C875.2 120.7 879.5 122.9 879.5 131.6V136H816C785.4 136 770.1 151.3 770.1 181.9V221.3C770.1 249.7 787.6 265.1 818.2 265.1H883.8C896.9 265.1 907.9 260.7 914.4 252C923.2 243.2 925.3 232.3 925.3 219.2V118.5C927.6 87.9 912.3 72.6 879.5 72.6ZM881.7 208.2C881.7 214.8 877.3 217 868.6 217H831.4C827 217 824.8 217 822.6 214.8C820.4 212.6 818.2 210.4 818.2 208.2V195.1C818.2 190.7 818.2 186.3 820.4 184.2C822.6 182 824.8 182 831.3 182H868.5C877.3 182 881.6 186.4 881.6 192.9L881.7 208.2ZM982.3 13.5C973.5 22.3 967 33.2 967 46.3V267.3H1015.1V122.9H1050.1V72.6H1015.1V61.7C1015.1 52.9 1019.5 48.6 1030.4 46.4H1047.9V0.499995H1017.3C1004.2 0.399995 993.3 4.7 982.3 13.5ZM1190.2 72.6H1124.6C1094 72.6 1078.7 87.9 1078.7 118.5V217C1078.7 225.8 1078.7 234.5 1080.9 238.9C1083.1 243.3 1085.3 249.8 1091.8 254.2C1096.2 258.6 1100.6 260.8 1107.1 263C1111.5 265.2 1120.2 265.2 1129 265.2H1234V217H1135.5C1133.3 217 1131.1 214.8 1128.9 212.6C1126.7 210.4 1126.7 208.2 1126.7 203.8V201.6L1236.1 160V120.6C1236.1 87.9 1220.8 72.6 1190.2 72.6ZM1188 131.6L1126.7 153.5V133.8C1126.7 129.4 1128.9 127.2 1131.1 125C1133.3 122.8 1137.7 120.6 1142 120.6H1174.8C1179.2 120.6 1181.4 120.6 1183.6 122.8C1185.8 125.1 1188 127.3 1188 131.6ZM465.3 624.1C459.7 624.1 451.3 618.5 445.7 615.7C440.1 610.1 434.5 604.5 431.7 596.1C428.9 587.7 428.9 579.3 428.9 570.9V453.3C428.9 436.5 434.5 422.5 442.9 416.9C451.3 411.3 465.3 405.7 482.1 405.7H574.5V391.7H479.3C468.1 391.7 459.7 391.7 454.1 394.5C445.7 397.3 437.3 402.9 431.7 408.5C426.1 414.1 420.5 422.5 417.7 430.9C414.9 439.3 414.9 447.7 414.9 456.1V573.7C414.9 584.9 417.7 596.1 420.5 604.5C423.3 612.9 428.9 621.3 437.3 629.7C445.7 635.3 454.1 640.9 462.5 640.9C470.9 643.7 479.3 643.7 487.7 643.7H577.3V629.7H490.5C479.3 626.9 470.9 624.1 465.3 624.1ZM801.2 397.3C798.4 394.5 792.8 391.7 787.2 391.7C778.8 388.9 767.6 388.9 756.4 388.9H630.4V402.9H764.8C773.2 402.9 781.6 402.9 787.2 405.7C792.8 408.5 801.2 411.3 804 419.7C812.4 430.9 815.2 442.1 815.2 456.1V472.9H692C650 472.9 627.6 495.3 627.6 537.3V576.5C627.6 596.1 633.2 612.9 647.2 624.1C658.4 635.3 675.2 640.9 694.8 640.9H767.6C787.2 640.9 804 635.3 815.2 621.3C820.8 612.9 826.4 607.3 826.4 598.9C826.4 590.5 829.2 582.1 829.2 573.7V461.7C829.2 442.1 823.6 425.3 812.4 411.3C809.6 405.7 806.8 400.1 801.2 397.3ZM815.2 576.5C815.2 610.1 798.4 624.1 767.6 626.9H692C678 626.9 666.8 621.3 655.6 612.9C650 607.3 644.4 601.7 644.4 596.1C644.4 590.5 644.4 582.1 644.4 576.5V537.3C644.4 520.5 650 509.3 658.4 500.9C666.8 492.5 678 486.9 692 486.9H815.2V576.5ZM904.8 461.7V640.9H918.8V461.7C918.8 425.3 935.6 405.7 969.2 405.7H988.8V391.7H972C927.2 391.7 902 414.1 904.8 461.7ZM1218.3 310.5V391.7H1103.5C1055.9 391.7 1030.7 414.1 1030.7 464.5V570.9C1030.7 582.1 1030.7 590.5 1033.5 598.9C1036.3 607.3 1039.1 615.7 1044.7 624.1C1053.1 632.5 1061.5 638.1 1072.7 640.9C1081.1 643.7 1092.3 643.7 1103.5 643.7H1159.5C1209.9 643.7 1235.1 621.3 1235.1 573.7V310.5H1218.3ZM1218.3 570.9C1218.3 590.5 1212.7 604.5 1198.7 612.9C1187.5 621.3 1170.7 626.9 1151.1 626.9H1100.7C1092.3 626.9 1083.9 626.9 1078.3 624.1C1072.7 621.3 1064.3 621.3 1058.7 615.7C1047.5 610.1 1041.9 596.1 1041.9 576.5V461.7C1041.9 453.3 1041.9 444.9 1044.7 439.3C1047.5 433.7 1050.3 428.1 1055.9 419.7C1061.5 414.1 1069.9 408.5 1075.5 405.7C1081.1 402.9 1089.5 402.9 1097.9 402.9H1215.5L1218.3 570.9Z" fill="#158AC8"/>
<path d="M125.7 438C132.3 405.2 162.9 381.1 197.9 381.1C232.9 381.1 263.5 405.2 270.1 438C281 440.2 289.8 444.6 296.4 451.1C296.4 444.5 296.4 438 296.4 433.6C289.8 383.3 248.3 343.9 195.7 343.9C143.1 343.9 101.6 385.5 97.2 438C97.2 442.4 97.2 446.8 97.2 451.1C101.6 446.7 106 444.5 112.5 442.3C116.9 440.2 121.3 438 125.7 438ZM252.6 448.9H136.6C130 448.9 125.7 451.1 119.1 453.3C112.5 455.5 108.2 457.7 103.8 462.1C97.2 470.9 92.9 484 92.9 501.5V593.4C92.9 610.9 97.3 621.8 103.8 630.6C108.2 635 112.6 637.2 119.1 639.4C125.7 641.6 130 643.8 136.6 643.8H254.8C285.4 643.8 300.7 626.3 300.7 593.5V499.4C298.5 466.4 283.2 448.9 252.6 448.9Z" fill="#E12730"/>
</svg>
