<svg width="1992" height="681" viewBox="0 0 1992 681" fill="none" xmlns="http://www.w3.org/2000/svg">
<path d="M1430.23 163.386C1475.39 163.386 1511.96 126.821 1511.96 81.7155C1511.96 36.5985 1475.39 -0.000488281 1430.23 -0.000488281C1385.16 -0.000488281 1348.59 36.5995 1348.59 81.7155C1348.59 126.822 1385.16 163.386 1430.23 163.386ZM804.318 207.476C800.62 216.751 774.089 291.724 709.885 369.427V37.1835L538.845 70.9835V673.239H709.885V487.079C759.435 561.363 783.889 673.239 783.889 673.239H988.763C968.497 588.99 879.851 433.643 879.851 433.643C959.409 332.781 994.352 225.304 999.905 207.476H804.318ZM1253.97 201.2C1100.78 206.124 1022.99 274.854 1022.99 411.488V673.239H1190.15V459.777C1190.15 377.979 1200.86 342.896 1297.93 339.559V203.603C1281.6 200.126 1253.97 201.199 1253.97 201.2ZM251.998 273.804C231.044 272.439 182.544 269.301 182.544 225.631C182.544 172.942 252.372 172.942 278.564 172.942C324.614 172.942 384.256 186.534 426.853 199.286C426.853 199.286 450.619 207.663 470.838 216.238L472.716 216.751V214.838V72.4405L470.138 71.6825C419.865 54.1005 361.412 37.1825 253.048 37.1825C66.1998 37.1825 -0.000205994 146.025 -0.000205994 239.269C-0.000205994 293.019 23.0308 419.537 237.029 434.133C255.16 435.241 303.298 438.018 303.298 483.135C303.298 520.4 263.887 542.357 197.606 542.357C124.967 542.357 54.4738 523.841 11.6788 506.271V654.886C75.7658 671.675 147.986 680.075 232.654 680.075C415.349 680.075 497.17 577.09 497.17 475.026C497.17 359.3 405.607 284.094 251.998 273.804ZM1347.39 673.238H1513.16V208.013H1347.39V673.238ZM1825.33 66.8295V673.239H1991.14V37.1825L1825.33 66.8295ZM1583.4 66.8295L1749.04 37.1835V673.239H1583.4C1583.4 673.238 1583.4 66.8285 1583.4 66.8295Z" fill="#862565"/>
</svg>
