<svg width="1056" height="765" viewBox="0 0 1056 765" fill="none" xmlns="http://www.w3.org/2000/svg">
<path d="M463.972 440.027C463.972 466.159 442.849 487.282 416.717 487.282C390.585 487.282 369.462 466.159 369.462 440.027C369.462 413.895 390.585 392.772 416.717 392.772C442.849 392.772 463.972 413.895 463.972 440.027ZM624.421 440.027C624.421 466.159 603.299 487.282 577.167 487.282C551.034 487.282 529.912 466.159 529.912 440.027C529.912 413.895 551.17 392.772 577.167 392.772C603.299 392.772 624.421 413.895 624.421 440.027ZM573.782 154.332H419.967V117.774H420.102C420.102 117.503 420.102 117.097 420.102 116.826C420.102 74.4461 454.494 39.9189 497.01 39.9189C539.39 39.9189 573.917 74.3107 573.917 116.826C573.917 117.233 573.917 117.503 573.917 117.774V154.332H573.782ZM548.462 227.99C548.462 230.292 548.462 232.323 543.858 232.323H519.757C517.049 232.323 515.966 232.864 515.966 235.437V318.302C515.966 322.635 513.528 323.718 507.571 323.718H483.876C477.241 323.718 475.481 323.041 475.481 318.302V235.437C475.481 232.729 474.398 232.323 471.69 232.323H449.484C444.88 232.323 444.88 230.292 444.88 227.99V207.545C444.88 203.618 447.859 203.076 452.463 203.076H541.015C545.618 203.076 548.597 203.618 548.597 207.545V227.99H548.462ZM669.103 154.332H616.162V125.627C616.297 123.867 616.297 121.972 616.297 120.211C616.297 54.2714 562.814 0.788208 496.874 0.788208C430.934 0.788208 377.451 54.2714 377.451 120.211C377.451 120.618 377.451 120.888 377.451 121.294V154.332H324.645C307.043 154.332 289.712 162.998 293.503 183.173L332.634 358.516C336.154 373.41 346.986 383.565 364.588 383.565H629.16C646.762 383.565 657.594 373.275 661.115 358.516L700.245 183.173C704.037 162.862 686.705 154.332 669.103 154.332Z" fill="#69BB4D"/>
<path d="M178.3 541.8H135.2C130.5 541.8 128.4 542.7 128.4 547.4V695.9C128.4 703.6 124 705.6 113.3 705.6H70.8C59 705.6 55.7 704.4 55.7 695.9V547.4C55.7 542.7 53.6 541.8 48.9 541.8H9.09998C0.799975 541.8 0.800049 538.3 0.800049 534.1V497.5C0.800049 490.4 6.10002 489.5 14.4 489.5H173C181.3 489.5 186.6 490.4 186.6 497.5V534.1C186.6 538.3 186.6 541.8 178.3 541.8ZM306.4 546.6C308.8 546.6 313.2 546.6 313.2 551.6V585.8C313.2 589.3 311.4 592.6 306.4 592.6C298.4 592.6 285.5 593 278.7 595.6C266 600.6 261.8 607 261.8 619.1V689.6C261.8 697.3 262.1 705.5 251.2 705.5H211.6C200.4 705.5 197.1 699.3 197.1 691.6V581.3C197.1 562.8 204.7 546.6 241.7 546.6H306.4ZM375.5 705.9C355.1 705.9 332.7 696.4 332.7 658.7V562.8C332.7 554.5 335.9 546.9 344.2 546.9H385.5C392.9 546.9 400 551.9 400 559.3V636C400 643.1 402.4 650.8 411.5 650.8C420.9 650.8 423.9 643.4 423.9 636.6V562.8C423.9 555.1 423.6 546.9 434.5 546.9H474C485.2 546.9 488.5 553.1 488.5 560.8V658.3C488.5 699.9 463 706 451.8 706L375.5 705.9ZM580.9 709.7C549.9 709.7 521.6 703.5 515.1 700.2C512.1 698.7 509.5 656.8 518.3 658.9C524.8 660.4 535.7 664.2 560.2 664.2C573.2 664.2 580.6 662.4 580.6 656.2C580.6 652.1 573.5 649.1 564.7 645.3C545.5 637 515.7 625.5 515.7 590.7C515.7 555 556.1 540.8 595.1 540.8C626.1 540.8 635.2 544 639.7 545.8C645.3 547.9 639.4 585.1 631.4 584.8C626.1 584.5 608.1 581.3 598.3 581.3C588.3 581.3 583.8 583.1 583.8 588.1C583.8 590.8 589.4 594 598.3 598.1C618.4 607.3 650.5 622.3 650.5 657.7C650.6 703.8 609.3 709.7 580.9 709.7ZM765.1 590.8H747.1V654.8C747.1 660.4 751.5 662.8 758 662.8C759.5 662.8 760.9 662.8 762.4 662.5C766.8 661.9 771.2 702.6 768.3 704.1C763.9 706.2 747.1 709.7 731.7 709.7C692.7 709.7 682.1 684.6 681.8 666.9C681.5 649.2 681.8 589.9 681.8 589.9H672.1C664.7 589.9 663.2 585.2 663.2 577.8V558.6C663.2 550.3 665.9 547.1 674.1 547.1H685V526.4C685 519 692.4 515.2 699.5 514L733.4 508.4C744.9 506.6 744.9 510.8 744.9 519V547H763.5C770.9 547 772.9 554.1 772.9 561.5V578.3C773.1 586.7 773.1 590.8 765.1 590.8ZM850.7 705.6H808.2C797.9 705.6 796.7 704.4 796.7 695.3V494.6C796.7 490.2 799.6 486.3 805.6 486.3H847.8C860.5 486.3 861.4 490.1 861.4 496.6V692C861.3 699.7 861.6 705.6 850.7 705.6ZM970.8 752.8C968.4 758.4 962.8 764.6 956.9 764.6H923.6C913 764.6 911.5 761.1 914.4 754.3L936.5 701.8L878.1 557.2C875.4 550.4 878.1 546.9 887.3 546.9H935.4C941.3 546.9 947.2 552.8 949.3 558.7L970.5 618.9L994.7 558.7C997.1 552.8 1002.7 546.9 1008.6 546.9H1044.9C1055.5 546.9 1057 550.5 1054.1 557.2L970.8 752.8Z" fill="#131110"/>
</svg>
