<?xml version="1.0" encoding="iso-8859-1"?>
<!-- Generator: Adobe Illustrator 19.0.0, SVG Export Plug-In . SVG Version: 6.00 Build 0)  -->
<svg version="1.1" xmlns="http://www.w3.org/2000/svg" xmlns:xlink="http://www.w3.org/1999/xlink" x="2000px" y="0px"
	 viewBox="0 0 2000 645.541" style="enable-background:new 0 0 2000 645.541;" xml:space="preserve">
<g id="visa">
	<path id="visa-txt" style="fill:#292C67;" d="M0,24.231c3.134-3.97,0.418-11.18,4.911-13.06c4.702-1.985,10.762-0.731,16.195-0.731
		c84.735,0,169.47,0,254.205,0c41.375,0,71.048,24.762,78.675,65.406c21.941,117.02,43.883,234.04,65.928,351.061
		c0.418,1.985,1.045,3.97,1.881,7.314c8.254-20.687,15.986-40.226,23.717-59.868c47.017-118.796,93.93-237.593,140.738-356.494
		c2.299-5.747,4.806-7.732,11.18-7.732c51.51,0.313,102.915,0.209,154.425,0.209c2.299,0,4.597,0,7.836,0
		c-6.582,15.986-12.956,31.24-19.329,46.495c-79.825,190.471-159.753,380.942-239.369,571.414
		c-2.403,5.747-5.015,7.627-11.284,7.523c-51.719-0.313-103.437-0.313-155.156,0c-6.478,0-8.672-1.881-10.239-7.941
		c-42.42-164.873-85.258-329.746-127.468-494.724c-6.478-25.494-20.165-43.256-44.092-54.54
		C105.736,56.516,56.316,42.097,6.06,30.395C4.075,29.978,1.985,29.351,0,28.828C0,27.365,0,25.798,0,24.231z M1369.345,3.543
		c28.57,4.658,56.316,11.806,83.69,21.001c4.493,1.463,5.851,3.239,4.702,8.359c-8.776,40.017-17.344,80.138-25.703,120.259
		c-1.149,5.329-2.299,6.478-7.836,4.075c-43.883-19.225-89.855-28.733-137.812-26.747c-20.688,0.836-40.853,4.493-58.824,15.568
		c-12.642,7.732-22.046,18.284-24.553,33.434c-2.09,12.851,3.134,23.404,11.702,32.494c13.165,14.001,29.882,23.195,46.495,32.285
		c30.3,16.508,61.54,31.345,89.855,51.301c31.136,21.941,58.51,47.853,69.585,85.362c19.852,67.287,5.224,128.095-40.748,180.545
		c-32.912,37.614-76.272,58.301-123.812,70.943c-52.346,13.896-105.632,15.672-159.231,10.344
		c-40.121-3.97-79.616-11.18-117.543-25.389c-11.911-4.493-11.911-4.493-9.194-17.24c8.359-39.599,16.822-79.198,25.285-118.796
		c0.418-1.985,1.149-3.97,1.881-6.269c28.315,13.687,56.943,26.016,87.661,32.076c40.748,8.045,81.705,12.015,122.662,0.731
		c13.687-3.761,26.225-9.821,36.569-19.852c19.956-19.434,20.688-47.226,1.567-67.496c-10.448-11.075-23.195-19.12-36.255-26.643
		c-23.717-13.792-49.316-24.344-72.824-38.658c-21.837-13.269-42.524-28.001-60.077-46.704
		c-44.614-47.226-52.45-102.079-32.181-161.843c17.762-52.346,55.167-87.556,103.124-112.423
		c37.091-19.329,77.034-28.758,118.378-33.33C1267.685,0.735,1333.983-2.222,1369.345,3.543z M694.912,635.661
		c4.806-22.359,9.403-44.196,14.001-65.928c23.717-110.856,47.435-221.607,71.152-332.463
		c15.777-73.556,31.449-147.111,47.122-220.667c1.045-4.806,2.925-6.478,8.15-6.478c49.629,0.209,99.258,0.209,148.887,0
		c5.015,0,6.478,0.627,5.224,6.269c-17.762,81.81-35.106,163.828-52.659,245.638c-24.135,112.841-48.271,225.682-72.511,338.523
		c-2.194,10.135-4.388,20.27-6.373,30.404c-0.627,2.926-1.567,4.493-5.015,4.493C800.543,635.661,748.093,635.661,694.912,635.661z
		 M1998.224,623.855c-11.911-56.316-23.822-112.632-35.524-169.052c-30.404-145.753-60.809-291.506-91.004-437.258
		c-1.149-5.433-3.239-7.314-9.09-7.314c-42.42,0.313-84.84,0.209-127.155,0.209c-35.942,0-60.286,16.299-74.287,49.734
		c-74.078,176.784-148.26,353.673-222.234,530.248c-6.164,14.732-12.224,29.568-18.389,44.405c1.463,0.418,1.881,0.627,2.403,0.627
		c54.331,0.105,108.662,0,162.992,0.209c4.702,0,5.538-2.716,6.687-5.851c9.717-27.061,19.643-54.017,29.151-81.183
		c1.776-4.911,3.97-6.582,9.299-6.582c64.152,0.313,128.409,0.313,192.561,0c6.583,0,8.254,2.508,9.299,8.045
		c5.12,26.225,10.762,52.346,15.881,78.571c1.045,5.642,3.448,7.105,9.09,7.105c47.226-0.209,94.557-0.104,141.887-0.104
		c0-2.612,0-5.12,0.209-7.836C1998.015,627.094,1998.537,625.213,1998.224,623.855z M1796.364,414.054
		c-41.48-0.313-83.063-0.105-125.692-0.105c28.21-77.735,56.002-154.32,83.69-230.906c0.522,0,0.94,0.105,1.463,0.105
		c4.284,20.583,8.672,41.062,12.956,61.645c11.18,53.808,22.359,107.617,33.748,161.321
		C1803.782,412.174,1803.156,414.054,1796.364,414.054z"/>
</g>
<g id="&#x421;&#x43B;&#x43E;&#x439;_1">
</g><a href="http://www.slotsup.com/casino-deposit-methods" target="_blank"></a>
</svg>
