<svg xmlns="http://www.w3.org/2000/svg" xmlns:xlink="http://www.w3.org/1999/xlink" viewBox="0 0 543 699"><defs><style>.cls-1{isolation:isolate;}.cls-2{fill:url(#radial-gradient);}.cls-3{fill:#04b218;}.cls-4{opacity:0.5;mix-blend-mode:multiply;fill:url(#radial-gradient-2);}.cls-5{fill:none;stroke:#fff;stroke-miterlimit:10;stroke-width:5px;}</style><radialGradient id="radial-gradient" cx="271.5" cy="349.5" r="312.94" gradientUnits="userSpaceOnUse"><stop offset="0" stop-color="#57ba1c"/><stop offset="0.23" stop-color="#50ba1e"/><stop offset="0.58" stop-color="#3cbb22"/><stop offset="0.99" stop-color="#1cbc2a"/><stop offset="1" stop-color="#1bbc2a"/></radialGradient><radialGradient id="radial-gradient-2" cx="271.5" cy="349.5" r="312.94" gradientUnits="userSpaceOnUse"><stop offset="0" stop-color="#fff"/><stop offset="0.12" stop-color="#fbfdfc"/><stop offset="0.25" stop-color="#eff8f3"/><stop offset="0.37" stop-color="#daf0e4"/><stop offset="0.5" stop-color="#bde3cf"/><stop offset="0.63" stop-color="#98d4b4"/><stop offset="0.76" stop-color="#6bc193"/><stop offset="0.88" stop-color="#37ab6c"/><stop offset="1" stop-color="#009444"/></radialGradient></defs><title>Vector Smart Object</title><g class="cls-1"><g id="Objects"><rect class="cls-2" width="543" height="699"/><rect class="cls-3" width="543" height="37"/><rect class="cls-3" y="69" width="543" height="37"/><rect class="cls-3" y="139" width="543" height="37"/><rect class="cls-3" y="208" width="543" height="37"/><rect class="cls-3" y="277" width="543" height="37"/><rect class="cls-3" y="347" width="543" height="37"/><rect class="cls-3" y="416" width="543" height="37"/><rect class="cls-3" y="485" width="543" height="37"/><rect class="cls-3" y="555" width="543" height="37"/><rect class="cls-3" y="624" width="543" height="37"/><rect class="cls-4" width="543" height="699"/><polygon class="cls-5" points="525.5 680.5 18.5 680.5 18.5 17.5 525.5 17.5 525.5 349.5 525.5 680.5"/><line class="cls-5" x1="19" y1="347.5" x2="525" y2="347.5"/><circle class="cls-5" cx="269.75" cy="347" r="70.95"/><rect class="cls-5" x="157.5" y="17.5" width="229" height="109"/><rect class="cls-5" x="210.5" y="17.5" width="123" height="58"/><path class="cls-5" d="M447.52,164.5a55.67,55.67,0,0,1-95,0" transform="translate(-128 -38)"/><path class="cls-5" d="M653.5,83.63A28.14,28.14,0,0,1,625.37,55.5" transform="translate(-128 -38)"/><path class="cls-5" d="M146.38,83.63A28.13,28.13,0,0,0,174.5,55.5" transform="translate(-128 -38)"/><rect class="cls-5" x="157.5" y="571.5" width="229" height="109"/><rect class="cls-5" x="210.5" y="622.5" width="123" height="58"/><path class="cls-5" d="M447.52,609.16a55.67,55.67,0,0,0-95,0" transform="translate(-128 -38)"/><path class="cls-5" d="M653.5,690a28.14,28.14,0,0,0-28.13,28.13" transform="translate(-128 -38)"/><path class="cls-5" d="M146.38,690a28.13,28.13,0,0,1,28.12,28.13" transform="translate(-128 -38)"/></g></g></svg>