<svg width="1170" height="1281" viewBox="0 0 1170 1281" fill="none" xmlns="http://www.w3.org/2000/svg">
<path d="M1001.72 566.062L1002.01 1056.57C1002.01 1066.46 1000.07 1076.25 996.295 1085.39C992.518 1094.53 986.979 1102.84 979.993 1109.83C973.008 1116.83 964.713 1122.38 955.582 1126.17C946.452 1129.96 936.665 1131.91 926.78 1131.92L303.297 1132.36C293.411 1132.37 283.62 1130.43 274.484 1126.65C265.348 1122.88 257.046 1117.34 250.051 1110.35C243.056 1103.36 237.505 1095.06 233.716 1085.93C229.926 1076.8 227.972 1067.01 227.966 1057.12L230.791 724.415" stroke="#696969" stroke-width="75" stroke-linecap="round" stroke-linejoin="round"/>
<path d="M608.145 330.713L609.32 1122.97M789.258 566.209L191.079 566.623C179.105 566.63 167.619 561.88 159.146 553.418C150.673 544.956 145.905 533.474 145.892 521.496L145.833 381.107C145.833 369.128 150.587 357.638 159.05 349.162C167.513 340.686 178.993 335.917 190.967 335.902L1029.27 335.323C1035.2 335.318 1041.08 336.48 1046.56 338.745C1052.04 341.01 1057.02 344.333 1061.21 348.523C1065.41 352.714 1068.74 357.69 1071.01 363.168C1073.28 368.646 1074.46 374.519 1074.46 380.451L1074.54 520.842C1074.54 532.82 1069.79 544.311 1061.33 552.788C1052.87 561.265 1041.39 566.035 1029.42 566.05L946.449 566.106L789.258 566.209ZM598.807 334.85L715.456 181.588C723.255 170.371 733.219 160.828 744.76 153.52C756.302 146.212 769.188 141.287 782.659 139.036C796.131 136.784 809.917 137.251 823.205 140.409C836.493 143.567 849.015 149.352 860.034 157.424C871.053 165.496 880.347 175.692 887.367 187.411C894.388 199.13 898.994 212.136 900.915 225.664C902.835 239.191 902.031 252.966 898.55 266.178C895.069 279.391 888.982 291.773 880.645 302.597L862.715 328.047L598.807 334.85ZM594.677 324.517L502.682 182.53C495.73 170.806 486.509 160.588 475.558 152.476C464.607 144.363 452.148 138.52 438.91 135.287C425.671 132.054 411.921 131.497 398.464 133.65C385.008 135.802 372.116 140.619 360.544 147.82C348.972 155.02 338.953 164.459 331.074 175.583C323.196 186.707 317.616 199.291 314.662 212.6C311.708 225.908 311.439 239.672 313.872 253.085C316.304 266.498 321.388 279.29 328.827 290.711L344.767 317.444L594.677 324.517Z" stroke="#696969" stroke-width="75" stroke-linecap="round" stroke-linejoin="round"/>
</svg>
